<svg xmlns="http://www.w3.org/2000/svg" viewBox="0 0 32 32">
  <path fill="#25D366" d="M16 0C7.16 0 0 7.16 0 16c0 2.82.74 5.47 2.03 7.76L0 32l8.45-2.21A15.9 15.9 0 0016 32c8.84 0 16-7.16 16-16S24.84 0 16 0z"/>
  <path fill="#FFF" d="M24.5 19.6c-.4-.2-2.3-1.1-2.7-1.2-.4-.2-.6-.2-.9.2-.3.4-1 1.2-1.2 1.4-.2.2-.4.2-.7.1-.4-.2-1.6-.6-3-1.9-1.1-1-1.9-2.3-2.1-2.7-.2-.4 0-.6.2-.8.2-.2.4-.4.6-.6.2-.2.3-.4.4-.6.1-.2 0-.4 0-.6 0-.2-.9-2.1-1.3-2.9-.4-.7-.7-.6-.9-.6h-.8c-.2 0-.6.1-.9.4-.3.3-1.2 1.2-1.2 2.9 0 1.7 1.3 3.4 1.5 3.6.2.2 2.5 3.8 6.1 5.3.9.4 1.6.6 2.1.7.9.3 1.7.2 2.3.1.7-.1 2.3-.9 2.6-1.7.3-.8.3-1.5.2-1.7-.1-.2-.3-.3-.7-.5z"/>
</svg>